# Blender v2.78 (sub 0) OBJ File: ''
# www.blender.org
mtllib Head.mtl
o Moustache
v 0.118521 0.453748 0.413706
v 0.163415 0.352676 0.434197
v 0.413478 0.431827 0.337668
v 0.373246 0.210750 0.357768
v 0.148283 0.227144 0.443589
v 0.143155 0.104757 0.383047
v -0.006774 0.172806 0.431130
v 0.253020 -0.004931 0.147903
v 0.478237 0.201867 0.107150
v -0.151825 0.105066 0.383047
v -0.156697 0.227464 0.443589
v -0.381714 0.211540 0.357768
v -0.486703 0.202878 0.107150
v -0.261939 -0.004392 0.147903
v -0.171565 0.353026 0.434197
v -0.421462 0.432702 0.337668
v -0.126459 0.454004 0.413706
vt 0.2188 0.8574
vt 0.3340 0.6406
vt 0.8770 1.0176
vt 0.8672 0.4492
vt 0.3457 0.3262
vt 0.4316 0.0410
vt 0.0684 0.0977
vt 0.8711 -0.0645
vt 1.2656 0.5723
vt 0.3848 0.0254
vt 0.3320 0.3320
vt 0.8359 0.4062
vt 1.2207 0.4941
vt 0.7871 -0.1348
vt 0.3535 0.6641
vt 0.0488 0.1211
vt 0.9004 1.0039
vt 0.2676 0.9023
vn 0.5258 0.5487 0.6500
vn 0.9779 0.1056 0.1805
vn 0.6580 0.2533 0.7091
vn 0.5628 -0.3637 0.7423
vn 0.6005 -0.7260 0.3351
vn 0.1762 -0.6584 0.7318
vn -0.0046 -0.9024 0.4309
vn 0.4756 -0.8592 0.1887
vn 0.9119 -0.3227 0.2536
vn -0.1788 -0.6576 0.7318
vn -0.6060 -0.7214 0.3351
vn -0.5636 -0.3625 0.7423
vn -0.9126 -0.3207 0.2536
vn -0.4787 -0.8574 0.1889
vn -0.9776 0.1077 0.1806
vn -0.6575 0.2547 0.7091
vn -0.5290 0.5468 0.6490
usemtl Moustache
s 1
f 1/1/1 2/2/2 3/3/3
f 4/4/4 3/3/3 2/2/2
f 4/4/4 2/2/2 5/5/5
f 5/5/5 6/6/6 4/4/4
f 7/7/7 6/6/6 5/5/5
f 8/8/8 9/9/9 4/4/4
f 6/6/6 8/8/8 4/4/4
f 3/3/3 4/4/4 9/9/9
f 10/10/10 11/11/11 12/12/12
f 13/13/13 14/14/14 12/12/12
f 14/14/14 10/10/10 12/12/12
f 15/15/15 12/12/12 11/11/11
f 10/10/10 7/16/7 11/11/11
f 16/17/16 12/12/12 15/15/15
f 17/18/17 16/17/16 15/15/15
f 12/12/12 16/17/16 13/13/13
o Cap
v -0.621224 0.659967 -0.372841
v -0.376064 0.831944 -0.530269
v -0.246272 0.633249 -0.789425
v -0.551292 0.595098 -0.155537
v -0.670943 0.928533 -0.110548
v -0.431434 0.459534 -0.371809
v -0.256507 0.408260 -0.794526
v -0.261584 0.335486 -0.622610
v 0.238708 0.632740 -0.789425
v 0.248453 0.407731 -0.794526
v 0.253376 0.334946 -0.622610
v 0.613696 0.658673 -0.372841
v 0.368896 0.831164 -0.530269
v 0.423506 0.458638 -0.371810
v 0.663977 0.927134 -0.110549
v 0.548648 0.593732 -0.150540
v -0.476130 0.749766 0.076618
v -0.196049 0.846357 0.371247
v -0.331069 0.827313 0.575592
v -0.160944 0.945756 0.385725
v -0.350639 1.237602 0.243669
v -0.210525 1.346258 -0.061747
v 0.468810 0.748776 0.076618
v 0.344321 1.236874 0.243669
v 0.204455 1.345824 -0.061747
v 0.154036 0.945426 0.385725
v 0.323891 0.826627 0.575592
v 0.188931 0.845953 0.371247
v -0.005560 1.331984 0.363031
v -0.006047 0.866758 0.692486
vt 0.0000 0.0000
vt 0.0000 0.0000
vt 0.0000 0.0000
vt 0.0000 0.0000
vt 0.0000 0.0000
vt 0.0000 0.0000
vt 0.0000 0.0000
vt 0.0000 0.0000
vt 0.0000 0.0000
vt 0.0000 0.0000
vt 0.0000 0.0000
vt 0.0000 0.0000
vt 0.0000 0.0000
vt 0.0000 0.0000
vt 0.0000 0.0000
vt 0.0000 0.0000
vt 0.0000 0.0000
vt 0.0000 0.0000
vt 0.0000 0.0000
vt 0.0000 0.0000
vt 0.0000 0.0000
vt 0.0000 0.0000
vt 0.0000 0.0000
vt 0.0000 0.0000
vt 0.0000 0.0000
vt 0.0000 0.0000
vt 0.0000 0.0000
vt 0.0000 0.0000
vt 0.0000 0.0000
vt 0.0000 0.0000
vn -0.8978 -0.2514 -0.3616
vn -0.3387 0.6692 -0.6614
vn -0.4079 0.3601 -0.8390
vn -0.9536 -0.0250 0.3001
vn -0.9690 0.2421 0.0500
vn -0.6819 -0.2476 -0.6882
vn -0.3192 -0.5062 -0.8012
vn -0.3669 -0.0164 -0.9301
vn 0.2745 0.3993 -0.8748
vn 0.4733 -0.4666 -0.7472
vn 0.3403 -0.1827 -0.9224
vn 0.8962 -0.2499 -0.3666
vn 0.3395 0.6459 -0.6838
vn 0.7118 -0.2705 -0.6483
vn 0.9678 0.2469 0.0492
vn 0.9545 -0.0333 0.2965
vn -0.8278 -0.0482 0.5590
vn -0.2139 -0.4605 0.8615
vn -0.6349 -0.3353 0.6961
vn -0.3862 0.6066 0.6949
vn -0.6761 0.4494 0.5839
vn -0.2904 0.8908 -0.3494
vn 0.8246 -0.0449 0.5640
vn 0.6755 0.4490 0.5849
vn 0.3461 0.9051 -0.2471
vn 0.3860 0.6062 0.6954
vn 0.6320 -0.3371 0.6979
vn 0.2121 -0.4608 0.8618
vn -0.0014 0.2934 0.9560
vn -0.0014 -0.1999 0.9798
usemtl Shirt_Cap.006
s 1
f 18/19/18 19/20/19 20/21/20
f 21/22/21 22/23/22 18/19/18
f 23/24/23 21/22/21 18/19/18
f 18/19/18 22/23/22 19/20/19
f 24/25/24 18/19/18 20/21/20
f 18/19/18 24/25/24 25/26/25
f 25/26/25 23/24/23 18/19/18
f 26/27/26 24/25/24 20/21/20
f 19/20/19 26/27/26 20/21/20
f 27/28/27 24/25/24 26/27/26
f 24/25/24 28/29/28 25/26/25
f 24/25/24 27/28/27 28/29/28
f 27/28/27 29/30/29 28/29/28
f 29/30/29 27/28/27 26/27/26
f 30/31/30 29/30/29 26/27/26
f 26/27/26 19/20/19 30/31/30
f 29/30/29 31/32/31 28/29/28
f 32/33/32 29/30/29 30/31/30
f 32/33/32 33/34/33 29/30/29
f 33/34/33 31/32/31 29/30/29
f 21/22/21 34/35/34 22/23/22
f 35/36/35 36/37/36 34/35/34
f 34/35/34 36/37/36 37/38/37
f 22/23/22 34/35/34 38/39/38
f 39/40/39 19/20/19 22/23/22
f 38/39/38 39/40/39 22/23/22
f 33/34/33 32/33/32 40/41/40
f 40/41/40 32/33/32 41/42/41
f 42/43/42 41/42/41 32/33/32
f 30/31/30 42/43/42 32/33/32
f 40/41/40 43/44/43 44/45/44
f 40/41/40 44/45/44 45/46/45
f 30/31/30 19/20/19 39/40/39
f 30/31/30 39/40/39 42/43/42
f 39/40/39 38/39/38 46/47/46
f 44/45/44 43/44/43 47/48/47
f 44/45/44 47/48/47 45/46/45
f 43/44/43 37/38/37 47/48/47
f 35/36/35 45/46/45 47/48/47
f 35/36/35 47/48/47 36/37/36
f 37/38/37 36/37/36 47/48/47
f 42/43/42 39/40/39 46/47/46
f 41/42/41 42/43/42 46/47/46
o Eyes
v 0.118521 0.453748 0.413706
v -0.006228 0.694065 0.414489
v -0.006422 0.508355 0.426171
v -0.336209 0.693440 0.324350
v -0.126459 0.454004 0.413706
v -0.196048 0.846357 0.371247
v -0.351419 0.492782 0.335364
v 0.188931 0.845953 0.371247
v -0.476130 0.749766 0.076618
v 0.328751 0.692744 0.324350
v 0.343541 0.492055 0.335364
v 0.468810 0.748776 0.076618
vt 0.7070 0.0645
vt 0.4688 0.5645
vt 0.4766 0.1660
vt -0.1426 0.5508
vt 0.2500 0.0527
vt 0.1035 0.8730
vt -0.1562 0.1230
vt 0.8223 0.8906
vt -0.3945 0.6660
vt 1.0820 0.5820
vt 1.1113 0.1562
vt 1.3301 0.7109
vn 0.5258 0.5487 0.6500
vn -0.0020 0.1121 0.9937
vn -0.0070 0.8310 0.5562
vn -0.6544 0.1734 0.7360
vn -0.5290 0.5468 0.6490
vn -0.2138 -0.4605 0.8615
vn -0.5807 0.3552 0.7325
vn 0.2122 -0.4608 0.8617
vn -0.8278 -0.0482 0.5589
vn 0.6548 0.1720 0.7360
vn 0.5814 0.3540 0.7326
vn 0.8246 -0.0449 0.5640
usemtl Eyes
s 1
f 48/49/48 49/50/49 50/51/50
f 51/52/51 52/53/52 53/54/53
f 53/54/53 52/53/52 49/50/49
f 51/52/51 54/55/54 52/53/52
f 49/50/49 52/53/52 50/51/50
f 55/56/55 53/54/53 49/50/49
f 56/57/56 51/52/51 53/54/53
f 57/58/57 48/49/48 58/59/58
f 48/49/48 57/58/57 55/56/55
f 57/58/57 59/60/59 55/56/55
f 48/49/48 55/56/55 49/50/49
o Face
v 0.143155 0.104757 0.383047
v -0.006774 0.172806 0.431130
v -0.151825 0.105066 0.383047
v -0.007014 -0.056393 0.185617
v 0.253020 -0.004931 0.147903
v -0.261939 -0.004392 0.147903
v -0.236841 0.089281 -0.378417
v 0.228139 0.088794 -0.378417
v 0.508237 0.201708 -0.113079
v 0.478237 0.201867 0.107150
v -0.516703 0.202782 -0.113079
v -0.486703 0.202878 0.107150
v 0.668539 0.508617 -0.264451
v 0.668338 0.317025 -0.233023
v 0.423506 0.458639 -0.371810
v -0.431434 0.459534 -0.371809
v -0.676381 0.510025 -0.264451
v -0.551292 0.595098 -0.155537
v 0.378321 0.281859 -0.334702
v 0.548648 0.593732 -0.150540
v 0.548467 0.421601 -0.218319
v -0.556472 0.422759 -0.218319
v -0.676582 0.318433 -0.233023
v -0.006826 0.122707 0.543983
v -0.006829 0.120304 0.709038
v -0.206709 0.215634 0.708297
v -0.386639 0.282660 -0.334702
v 0.198253 0.197639 0.542347
v 0.148283 0.227144 0.443589
v -0.156697 0.227464 0.443589
v 0.163415 0.352676 0.434197
v 0.118521 0.453748 0.413706
v 0.413478 0.431827 0.337668
v 0.343541 0.492055 0.335364
v -0.006381 0.548170 0.543063
v 0.198541 0.472794 0.544690
v -0.006422 0.508355 0.426171
v -0.126459 0.454004 0.413706
v -0.006378 0.550762 0.708332
v 0.198543 0.475402 0.709971
v -0.206439 0.473218 0.544690
v 0.223399 0.337698 0.543643
v 0.223407 0.345272 0.709141
v -0.006476 0.456811 0.794207
v 0.198271 0.215210 0.708297
v -0.006691 0.251591 0.795009
v 0.328751 0.692744 0.324350
v 0.463508 0.460484 0.143763
v 0.468810 0.748776 0.076618
v -0.006781 0.166134 -0.535115
v -0.471432 0.461463 0.143763
v -0.336209 0.693440 0.324350
v -0.476130 0.749766 0.076618
v -0.351419 0.492782 0.335364
v -0.421462 0.432702 0.337668
v -0.206436 0.475826 0.709971
v -0.231581 0.338175 0.543643
v -0.231573 0.345749 0.709141
v -0.206727 0.198062 0.542347
v -0.171565 0.353026 0.434197
vt 0.0000 0.0000
vt 0.0000 0.0000
vt 0.0000 0.0000
vt 0.0000 0.0000
vt 0.0000 0.0000
vt 0.0000 0.0000
vt 0.0000 0.0000
vt 0.0000 0.0000
vt 0.0000 0.0000
vt 0.0000 0.0000
vt 0.0000 0.0000
vt 0.0000 0.0000
vt 0.0000 0.0000
vt 0.0000 0.0000
vt 0.0000 0.0000
vt 0.0000 0.0000
vt 0.0000 0.0000
vt 0.0000 0.0000
vt 0.0000 0.0000
vt 0.0000 0.0000
vt 0.0000 0.0000
vt 0.0000 0.0000
vt 0.0000 0.0000
vt 0.0000 0.0000
vt 0.0000 0.0000
vt 0.0000 0.0000
vt 0.0000 0.0000
vt 0.0000 0.0000
vt 0.0000 0.0000
vt 0.0000 0.0000
vt 0.0000 0.0000
vt 0.0000 0.0000
vt 0.0000 0.0000
vt 0.0000 0.0000
vt 0.0000 0.0000
vt 0.0000 0.0000
vt 0.0000 0.0000
vt 0.0000 0.0000
vt 0.0000 0.0000
vt 0.0000 0.0000
vt 0.0000 0.0000
vt 0.0000 0.0000
vt 0.0000 0.0000
vt 0.0000 0.0000
vt 0.0000 0.0000
vt 0.0000 0.0000
vt 0.0000 0.0000
vt 0.0000 0.0000
vt 0.0000 0.0000
vt 0.0000 0.0000
vt 0.0000 0.0000
vt 0.0000 0.0000
vt 0.0000 0.0000
vt 0.0000 0.0000
vt 0.0000 0.0000
vt 0.0000 0.0000
vt 0.0000 0.0000
vt 0.0000 0.0000
vt 0.0000 0.0000
vt 0.0000 0.0000
vn 0.1762 -0.6584 0.7318
vn -0.0046 -0.9024 0.4309
vn -0.1788 -0.6576 0.7318
vn -0.0024 -0.9822 0.1878
vn 0.4756 -0.8592 0.1887
vn -0.4787 -0.8574 0.1889
vn -0.3273 -0.9396 -0.0998
vn 0.3256 -0.9402 -0.0997
vn 0.8439 -0.5365 0.0022
vn 0.9119 -0.3227 0.2536
vn -0.8450 -0.5348 0.0022
vn -0.9126 -0.3207 0.2536
vn 0.9020 0.3756 0.2129
vn 0.8829 -0.4080 -0.2323
vn 0.7118 -0.2704 -0.6483
vn -0.6819 -0.2476 -0.6882
vn -0.8930 0.3928 0.2196
vn -0.9536 -0.0250 0.3001
vn 0.9100 -0.1493 -0.3868
vn 0.9545 -0.0333 0.2964
vn 0.7046 0.0067 0.7095
vn -0.7019 0.0231 0.7119
vn -0.8838 -0.4062 -0.2322
vn -0.0717 -0.9688 -0.2373
vn 0.0776 -0.9113 0.4043
vn -0.7106 -0.5882 0.3862
vn -0.9103 -0.1474 -0.3868
vn 0.7419 -0.6214 -0.2519
vn 0.6005 -0.7260 0.3351
vn -0.6060 -0.7215 0.3351
vn 0.9779 0.1056 0.1805
vn 0.5257 0.5487 0.6500
vn 0.6581 0.2533 0.7091
vn 0.5814 0.3540 0.7325
vn 0.0499 0.9782 -0.2016
vn 0.7704 0.5583 -0.3078
vn -0.0069 0.8310 0.5562
vn -0.5289 0.5468 0.6490
vn -0.0826 0.9443 0.3184
vn 0.6957 0.6321 0.3412
vn -0.7149 0.6486 -0.2613
vn 0.9867 0.0029 -0.1624
vn 0.7398 -0.0029 0.6728
vn -0.0035 0.2711 0.9625
vn 0.7515 -0.4694 0.4636
vn -0.0040 -0.2214 0.9752
vn 0.6548 0.1720 0.7360
vn 0.9386 0.1188 0.3238
vn 0.8246 -0.0448 0.5640
vn 0.9119 -0.3226 0.2536
vn 0.0036 -0.7077 -0.7065
vn -0.6994 -0.2499 0.6697
vn -0.6544 0.1734 0.7360
vn -0.8278 -0.0482 0.5590
vn -0.5807 0.3552 0.7325
vn -0.6575 0.2547 0.7091
vn -0.7496 0.5186 0.4113
vn -0.9867 0.0050 -0.1623
vn -0.7434 -0.0013 0.6689
vn -0.5290 0.5468 0.6490
vn -0.7950 -0.5281 -0.2985
vn -0.9777 0.1076 0.1805
usemtl Skin
s 1
f 60/61/60 61/62/61 62/63/62
f 63/64/63 60/61/60 62/63/62
f 60/61/60 63/64/63 64/65/64
f 63/64/63 62/63/62 65/66/65
f 63/64/63 66/67/66 67/68/67
f 63/64/63 67/68/67 64/65/64
f 65/66/65 66/67/66 63/64/63
f 68/69/68 64/65/64 67/68/67
f 68/69/68 69/70/69 64/65/64
f 65/66/65 70/71/70 66/67/66
f 71/72/71 70/71/70 65/66/65
f 72/73/72 73/74/73 74/75/74
f 75/76/75 76/77/76 77/78/77
f 74/75/74 73/74/73 78/79/78
f 72/73/72 79/80/79 80/81/80
f 72/73/72 74/75/74 79/80/79
f 80/81/80 73/74/73 72/73/72
f 80/81/80 68/69/68 73/74/73
f 78/79/78 73/74/73 68/69/68
f 70/71/70 81/82/81 82/83/82
f 77/78/77 76/77/76 81/82/81
f 82/83/82 81/82/81 76/77/76
f 75/76/75 82/83/82 76/77/76
f 83/84/83 84/85/84 85/86/85
f 75/76/75 86/87/86 82/83/82
f 86/87/86 70/71/70 82/83/82
f 68/69/68 67/68/67 78/79/78
f 66/67/66 70/71/70 86/87/86
f 84/85/84 83/84/83 87/88/87
f 83/84/83 88/89/88 87/88/87
f 83/84/83 89/90/89 61/62/61
f 88/89/88 83/84/83 61/62/61
f 90/91/90 87/88/87 88/89/88
f 91/92/91 92/93/92 93/94/93
f 91/92/91 94/95/94 95/96/95
f 95/96/95 90/91/90 91/92/91
f 94/95/94 91/92/91 96/97/96
f 97/98/97 94/95/94 96/97/96
f 94/95/94 98/99/98 99/100/99
f 94/95/94 99/100/99 95/96/95
f 94/95/94 97/98/97 100/101/100
f 98/99/98 94/95/94 100/101/100
f 99/100/99 101/102/101 95/96/95
f 99/100/99 102/103/102 101/102/101
f 98/99/98 103/104/103 99/100/99
f 102/103/102 99/100/99 103/104/103
f 90/91/90 95/96/95 101/102/101
f 101/102/101 104/105/104 87/88/87
f 84/85/84 87/88/87 104/105/104
f 90/91/90 101/102/101 87/88/87
f 105/106/105 104/105/104 102/103/102
f 102/103/102 104/105/104 101/102/101
f 105/106/105 84/85/84 104/105/104
f 85/86/85 84/85/84 105/106/105
f 106/107/106 107/108/107 108/109/108
f 103/104/103 105/106/105 102/103/102
f 107/108/107 93/94/93 92/93/92
f 107/108/107 106/107/106 93/94/93
f 92/93/92 69/70/109 107/108/107
f 67/68/67 66/67/66 109/110/110
f 110/111/111 111/112/112 112/113/113
f 113/114/114 110/111/111 114/115/115
f 71/72/71 114/115/115 110/111/111
f 111/112/112 110/111/111 113/114/114
f 115/116/116 116/117/117 117/118/118
f 113/114/114 114/115/115 97/98/119
f 116/117/117 85/86/85 117/118/118
f 116/117/117 118/119/120 85/86/85
f 85/86/85 105/106/105 117/118/118
f 83/84/83 85/86/85 118/119/120
f 118/119/120 119/120/121 89/90/89
f 119/120/121 118/119/120 116/117/117
f 89/90/89 83/84/83 118/119/120
f 100/101/100 116/117/117 115/116/116
f 98/99/98 100/101/100 115/116/116
f 119/120/121 100/101/100 97/98/97
f 119/120/121 116/117/117 100/101/100
f 103/104/103 117/118/118 105/106/105
f 117/118/118 103/104/103 115/116/116
f 115/116/116 103/104/103 98/99/98
o Hair
v -0.261584 0.335486 -0.622610
v -0.006781 0.166133 -0.535115
v -0.181727 0.198466 -0.693815
v 0.293348 0.307386 -0.678898
v 0.428199 0.165908 -0.540100
v 0.333229 0.193824 -0.714029
v 0.378321 0.281859 -0.334702
v 0.253376 0.334946 -0.622610
v 0.173253 0.198095 -0.693815
v 0.423506 0.458638 -0.371810
v 0.228139 0.088794 -0.378417
v -0.301612 0.308010 -0.678898
v -0.341731 0.194531 -0.714029
v -0.386639 0.282660 -0.334702
v -0.436741 0.166814 -0.540100
v -0.236841 0.089281 -0.378417
v -0.296875 0.057445 -0.560027
v -0.431434 0.459534 -0.371809
v 0.288085 0.056832 -0.560027
vt 0.0000 0.0000
vt 0.0000 0.0000
vt 0.0000 0.0000
vt 0.0000 0.0000
vt 0.0000 0.0000
vt 0.0000 0.0000
vt 0.0000 0.0000
vt 0.0000 0.0000
vt 0.0000 0.0000
vt 0.0000 0.0000
vt 0.0000 0.0000
vt 0.0000 0.0000
vt 0.0000 0.0000
vt 0.0000 0.0000
vt 0.0000 0.0000
vt 0.0000 0.0000
vt 0.0000 0.0000
vt 0.0000 0.0000
vt 0.0000 0.0000
vn -0.3670 -0.0164 -0.9301
vn 0.0036 -0.7077 -0.7065
vn 0.4379 -0.0071 -0.8990
vn 0.3997 0.7156 -0.5729
vn 0.9550 -0.2933 -0.0441
vn 0.4233 -0.2620 -0.8673
vn 0.9100 -0.1493 -0.3868
vn 0.3403 -0.1826 -0.9224
vn -0.4335 -0.0061 -0.9011
vn 0.7118 -0.2705 -0.6482
vn 0.3256 -0.9402 -0.0998
vn -0.3982 0.7164 -0.5729
vn -0.4239 -0.2611 -0.8672
vn -0.9103 -0.1474 -0.3868
vn -0.9556 -0.2913 -0.0441
vn -0.3273 -0.9396 -0.0998
vn -0.0879 -0.9468 -0.3097
vn -0.6819 -0.2476 -0.6882
vn 0.0885 -0.9466 -0.3100
usemtl Hair
s 1
f 120/121/122 121/122/123 122/123/124
f 123/124/125 124/125/126 125/126/127
f 126/127/128 123/124/125 127/128/129
f 127/128/129 123/124/125 128/129/130
f 128/129/130 123/124/125 125/126/127
f 123/124/125 126/127/128 124/125/126
f 127/128/129 121/122/123 120/121/122
f 126/127/128 127/128/129 129/130/131
f 128/129/130 121/122/123 127/128/129
f 130/131/132 124/125/126 126/127/128
f 131/132/133 122/123/124 132/133/134
f 133/134/135 131/132/133 134/135/136
f 131/132/133 132/133/134 134/135/136
f 120/121/122 122/123/124 131/132/133
f 131/132/133 133/134/135 120/121/122
f 134/135/136 135/136/137 133/134/135
f 136/137/138 134/135/136 132/133/134
f 135/136/137 134/135/136 136/137/138
f 120/121/122 133/134/135 137/138/139
f 136/137/138 121/122/123 135/136/137
f 138/139/140 121/122/123 128/129/130
f 121/122/123 138/139/140 130/131/132
f 122/123/124 136/137/138 132/133/134
f 121/122/123 136/137/138 122/123/124
f 124/125/126 138/139/140 125/126/127
f 124/125/126 130/131/132 138/139/140
f 138/139/140 128/129/130 125/126/127
o Hair_Piece
v -0.476130 0.749766 0.076618
v -0.551292 0.595098 -0.155537
v -0.471432 0.461463 0.143763
v -0.516703 0.202782 -0.113079
v -0.556472 0.422759 -0.218319
v -0.486703 0.202878 0.107150
v 0.508237 0.201708 -0.113079
v 0.463508 0.460484 0.143763
v 0.478237 0.201867 0.107150
v 0.548467 0.421601 -0.218319
v 0.548648 0.593732 -0.150540
v 0.468810 0.748776 0.076618
vt 0.0879 1.0566
vt 0.8945 0.8203
vt -0.0684 0.3164
vt 0.8223 -0.1816
vt 1.1230 0.4316
vt 0.1152 -0.3027
vt 0.9453 -0.1641
vt -0.0723 0.2910
vt 0.1914 -0.3340
vt 1.2090 0.4941
vt 0.9004 0.8809
vt 0.0215 1.0664
vn -0.8278 -0.0482 0.5589
vn -0.9536 -0.0250 0.3001
vn -0.6993 -0.2499 0.6697
vn -0.8450 -0.5348 0.0022
vn -0.7019 0.0231 0.7119
vn -0.9126 -0.3207 0.2536
vn 0.8439 -0.5365 0.0022
vn 0.9386 0.1188 0.3239
vn 0.9119 -0.3227 0.2536
vn 0.7046 0.0067 0.7096
vn 0.9545 -0.0333 0.2964
vn 0.8246 -0.0449 0.5640
usemtl Hair_Piece
s 1
f 139/140/141 140/141/142 141/142/143
f 142/143/144 141/142/143 143/144/145
f 141/142/143 142/143/144 144/145/146
f 140/141/142 143/144/145 141/142/143
f 145/146/147 146/147/148 147/148/149
f 146/147/148 145/146/147 148/149/150
f 146/147/148 148/149/150 149/150/151
f 149/150/151 150/151/152 146/147/148
o Logo
v 0.344321 1.236874 0.243669
v 0.154036 0.945426 0.385725
v 0.468810 0.748776 0.076618
v -0.160944 0.945756 0.385725
v -0.005560 1.331984 0.363031
v -0.350639 1.237602 0.243669
v -0.476130 0.749766 0.076618
vt 1.0078 0.8516
vt 0.7266 0.2852
vt 1.2207 -0.0410
vt 0.2266 0.2812
vt 0.4609 1.0156
vt -0.0762 0.8457
vt -0.2520 -0.0508
vn 0.6755 0.4491 0.5849
vn 0.3860 0.6063 0.6953
vn 0.8246 -0.0449 0.5640
vn -0.3863 0.6066 0.6949
vn -0.0015 -0.1999 0.9798
vn -0.6761 0.4494 0.5839
vn -0.8278 -0.0482 0.5590
usemtl Logo
s 1
f 151/152/153 152/153/154 153/154/155
f 154/155/156 155/156/157 156/157/158
f 152/153/154 151/152/153 155/156/157
f 152/153/154 155/156/157 154/155/156
f 154/155/156 156/157/158 157/158/159
