# Blender v2.78 (sub 0) OBJ File: ''
# www.blender.org
mtllib Left_Leg_Upper.mtl
o Left_Upper_Leg_Left_Upper_Leg.003
v -0.196032 -0.068001 0.069420
v 0.002974 -0.062317 0.225674
v 0.000000 0.000000 0.000000
v -0.119352 -0.068508 -0.180844
v 0.120671 -0.065474 -0.179645
v 0.199010 -0.066617 0.066694
v 0.121747 -0.547131 -0.181403
v 0.200066 -0.547876 0.069896
v -0.000388 -0.656864 0.002131
v -0.118277 -0.550154 -0.182618
v -0.194956 -0.549641 0.067646
v -0.001015 -0.548510 0.229240
v -0.149811 -0.162348 -0.228733
v -0.246910 -0.161491 0.086595
v 0.155212 -0.159838 -0.227086
v 0.253092 -0.160570 0.089559
v 0.001814 -0.158007 0.283439
vt 0.0000 0.0000
vt 0.0000 0.0000
vt 0.0000 0.0000
vt 0.0000 0.0000
vt 0.0000 0.0000
vt 0.0000 0.0000
vt 0.0000 0.0000
vt 0.0000 0.0000
vt 0.0000 0.0000
vt 0.0000 0.0000
vt 0.0000 0.0000
vt 0.0000 0.0000
vt 0.0000 0.0000
vt 0.0000 0.0000
vt 0.0000 0.0000
vt 0.0000 0.0000
vt 0.0000 0.0000
vn -0.5880 0.7908 0.1700
vn -0.0036 0.7408 0.6718
vn -0.0059 0.9999 -0.0105
vn -0.4969 0.7451 -0.4449
vn 0.4089 0.7265 -0.5523
vn 0.5748 0.8027 0.1592
vn 0.6234 -0.5270 -0.5776
vn 0.7585 -0.6102 0.2287
vn 0.0007 -1.0000 -0.0029
vn -0.5235 -0.4740 -0.7080
vn -0.7636 -0.6049 0.2261
vn -0.0079 -0.4838 0.8751
vn -0.4584 0.2767 -0.8446
vn -0.9380 0.1962 0.2858
vn 0.4632 0.1384 -0.8754
vn 0.9352 0.2068 0.2874
vn -0.0058 0.2092 0.9779
usemtl Overalls.012
s 1
f 1/1/1 2/2/2 3/3/3
f 4/4/4 1/1/1 3/3/3
f 5/5/5 4/4/4 3/3/3
f 6/6/6 5/5/5 3/3/3
f 7/7/7 8/8/8 9/9/9
f 10/10/10 7/7/7 9/9/9
f 11/11/11 10/10/10 9/9/9
f 12/12/12 11/11/11 9/9/9
f 8/8/8 12/12/12 9/9/9
f 13/13/13 14/14/14 4/4/4
f 15/15/15 13/13/13 5/5/5
f 16/16/16 15/15/15 5/5/5
f 17/17/17 16/16/16 2/2/2
f 14/14/14 17/17/17 2/2/2
f 2/2/2 6/6/6 3/3/3
f 12/12/12 16/16/16 17/17/17
f 7/7/7 15/15/15 16/16/16
f 10/10/10 13/13/13 15/15/15
f 10/10/10 14/14/14 13/13/13
f 12/12/12 17/17/17 14/14/14
f 12/12/12 14/14/14 11/11/11
f 14/14/14 10/10/10 11/11/11
f 10/10/10 15/15/15 7/7/7
f 7/7/7 16/16/16 8/8/8
f 16/16/16 12/12/12 8/8/8
f 14/14/14 2/2/2 1/1/1
f 2/2/2 16/16/16 6/6/6
f 16/16/16 5/5/5 6/6/6
f 5/5/5 13/13/13 4/4/4
f 4/4/4 14/14/14 1/1/1
