# Blender v2.78 (sub 0) OBJ File: ''
# www.blender.org
mtllib Left_Arm_Hand.mtl
o Right_Hand.003_Right_Hand.000
v 0.159017 0.012692 0.224925
v 0.266093 0.224322 0.033705
v 0.260640 0.023408 0.292630
v 0.167165 0.070140 -0.208513
v 0.259045 0.097316 -0.269102
v 0.101034 0.198109 0.024186
v 0.092729 0.016319 0.290254
v 0.100315 0.090108 -0.267500
v 0.091685 -0.147415 -0.191528
v 0.157735 -0.155512 0.121974
v 0.089494 -0.192863 0.152774
v 0.000000 0.000000 0.000000
v 0.521597 0.089057 -0.272018
v 0.522104 0.008093 0.304678
v 0.389350 -0.316897 0.236611
v 0.391474 -0.286376 0.005567
v 0.531960 -0.231670 0.173786
v 0.542438 0.215891 0.036739
v 0.623072 -0.060874 -0.019533
v 0.531388 -0.215321 0.049454
v 0.459627 -0.147112 -0.185955
v 0.358454 -0.090627 -0.265324
v 0.251379 -0.203286 -0.020654
v 0.155291 -0.119975 -0.148799
v 0.159616 0.150008 0.025818
vt 0.0000 0.0000
vt 0.0000 0.0000
vt 0.0000 0.0000
vt 0.0000 0.0000
vt 0.0000 0.0000
vt 0.0000 0.0000
vt 0.0000 0.0000
vt 0.0000 0.0000
vt 0.0000 0.0000
vt 0.0000 0.0000
vt 0.0000 0.0000
vt 0.0000 0.0000
vt 0.0000 0.0000
vt 0.0000 0.0000
vt 0.0000 0.0000
vt 0.0000 0.0000
vt 0.0000 0.0000
vt 0.0000 0.0000
vt 0.0000 0.0000
vt 0.0000 0.0000
vt 0.0000 0.0000
vt 0.0000 0.0000
vt 0.0000 0.0000
vt 0.0000 0.0000
vt 0.0000 0.0000
vn -0.0468 -0.1508 -0.9875
vn 0.2382 -0.9637 -0.1209
vn 0.2937 -0.3549 -0.8876
vn 0.0410 -0.3990 0.9160
vn 0.2864 -0.5326 0.7964
vn 0.2896 -0.9517 -0.1016
vn 0.1341 -0.1333 -0.9820
vn 0.1218 -0.3866 0.9142
vn 0.3340 0.6683 0.6647
vn -0.0205 0.8945 -0.4466
vn 0.3048 0.8558 -0.4180
vn 0.9993 -0.0373 0.0081
vn -0.5440 -0.3604 0.7578
vn -0.4991 -0.2358 -0.8338
vn -0.0175 0.8431 -0.5375
vn 0.0531 0.9532 0.2978
vn -0.7472 0.5535 -0.3678
vn -0.4993 -0.8569 -0.1277
vn -0.9804 0.1350 0.1432
vn -0.6820 0.7087 0.1808
vn -0.3720 0.6682 0.6443
vn 0.0298 0.4200 0.9071
vn 0.4672 0.8427 0.2676
vn -0.3839 0.7898 0.4784
vn -0.0563 -0.9821 -0.1799
usemtl Gloves.002
s 1
f 1/1/1 2/2/2 3/3/3
f 4/4/4 5/5/5 2/2/2
f 6/6/6 1/1/1 7/7/7
f 4/4/4 6/6/6 8/8/8
f 9/9/9 4/4/4 8/8/8
f 10/10/10 9/9/9 11/11/11
f 1/1/1 11/11/11 7/7/7
f 6/6/6 7/7/7 12/12/12
f 8/8/8 6/6/6 12/12/12
f 9/9/9 8/8/8 12/12/12
f 11/11/11 9/9/9 12/12/12
f 7/7/7 11/11/11 12/12/12
f 2/2/2 5/5/5 13/13/13
f 3/3/3 2/2/2 14/14/14
f 15/15/15 3/3/3 14/14/14
f 16/16/16 15/15/15 17/17/17
f 18/18/18 13/13/13 19/19/19
f 14/14/14 18/18/18 19/19/19
f 17/17/17 14/14/14 19/19/19
f 20/20/20 17/17/17 19/19/19
f 13/13/13 21/21/21 19/19/19
f 16/16/16 20/20/20 21/21/21
f 16/16/16 21/21/21 22/22/22
f 16/16/16 22/22/22 23/23/23
f 15/15/15 14/14/14 17/17/17
f 13/13/13 22/22/22 21/21/21
f 22/22/22 13/13/13 5/5/5
f 20/20/20 19/19/19 21/21/21
f 16/16/16 17/17/17 20/20/20
f 14/14/14 2/2/2 18/18/18
f 2/2/2 13/13/13 18/18/18
f 11/11/11 1/1/1 10/10/10
f 9/9/9 10/10/10 24/24/24
f 4/4/4 9/9/9 24/24/24
f 6/6/6 4/4/4 25/25/25
f 1/1/1 6/6/6 25/25/25
f 4/4/4 2/2/2 25/25/25
f 10/10/10 23/23/23 24/24/24
f 2/2/2 1/1/1 25/25/25
f 10/10/10 3/3/3 15/15/15
f 10/10/10 15/15/15 23/23/23
f 23/23/23 15/15/15 16/16/16
f 3/3/3 10/10/10 1/1/1
f 24/24/24 5/5/5 4/4/4
f 22/22/22 24/24/24 23/23/23
f 24/24/24 22/22/22 5/5/5
