# Blender v2.78 (sub 0) OBJ File: ''
# www.blender.org
mtllib Left_Arm_Upper.mtl
o Right_Upper_Arm.003_Right_Upper_Arm.000
v 0.078449 0.186705 0.049622
v 0.317869 0.169380 -0.045382
v 0.130950 -0.002693 0.163829
v 0.364970 0.017768 0.048369
v 0.101401 -0.181918 0.020022
v 0.335828 -0.124420 -0.069870
v 0.028279 -0.098316 -0.179187
v 0.280245 -0.056125 -0.223720
v 0.015065 0.125610 -0.159167
v 0.268981 0.123228 -0.209556
v 0.038111 -0.004984 0.111863
v 0.002771 0.108731 0.041538
v -0.033087 0.073124 -0.083330
v -0.025490 -0.061128 -0.096278
v 0.017695 -0.115744 0.026207
v 0.363331 0.130148 -0.077275
v 0.375678 -0.073953 -0.094684
v 0.325983 0.097996 -0.190494
v 0.333142 -0.026352 -0.202138
v 0.390123 0.027005 -0.013329
vt 0.0000 0.0000
vt 0.0000 0.0000
vt 0.0000 0.0000
vt 0.0000 0.0000
vt 0.0000 0.0000
vt 0.0000 0.0000
vt 0.0000 0.0000
vt 0.0000 0.0000
vt 0.0000 0.0000
vt 0.0000 0.0000
vt 0.0000 0.0000
vt 0.0000 0.0000
vt 0.0000 0.0000
vt 0.0000 0.0000
vt 0.0000 0.0000
vt 0.0000 0.0000
vt 0.0000 0.0000
vt 0.0000 0.0000
vt 0.0000 0.0000
vt 0.0000 0.0000
vn 0.1863 -0.8778 -0.4413
vn -0.3855 -0.9135 -0.1302
vn -0.0593 0.0754 -0.9954
vn -0.6460 -0.0283 -0.7628
vn 0.0857 0.9579 -0.2740
vn -0.5402 0.8328 -0.1209
vn 0.4492 0.5281 0.7206
vn -0.1488 0.5092 0.8477
vn 0.5104 -0.5969 0.6190
vn -0.0789 -0.5219 0.8494
vn 0.6945 0.1688 -0.6995
vn 0.7772 -0.3949 -0.4899
vn 0.9472 -0.3098 0.0824
vn 0.9623 0.2272 0.1492
vn 0.7024 0.6406 -0.3103
vn -0.8652 -0.4857 0.1245
vn -0.8913 0.4222 0.1653
vn -0.6150 -0.4644 0.6373
vn -0.6917 0.1750 0.7007
vn -0.9638 -0.0715 -0.2568
usemtl Shirt_Cap.003
s 1
f 1/1/1 2/2/2 3/3/3
f 3/3/3 4/4/4 5/5/5
f 5/5/5 6/6/6 7/7/7
f 7/7/7 8/8/8 9/9/9
f 9/9/9 10/10/10 1/1/1
f 1/1/1 3/3/3 11/11/11
f 9/9/9 1/1/1 12/12/12
f 7/7/7 9/9/9 13/13/13
f 5/5/5 7/7/7 14/14/14
f 3/3/3 5/5/5 15/15/15
f 2/2/2 10/10/10 16/16/16
f 4/4/4 2/2/2 16/16/16
f 6/6/6 4/4/4 17/17/17
f 8/8/8 6/6/6 17/17/17
f 10/10/10 8/8/8 18/18/18
f 18/18/18 8/8/8 19/19/19
f 8/8/8 17/17/17 19/19/19
f 17/17/17 4/4/4 20/20/20
f 4/4/4 16/16/16 20/20/20
f 16/16/16 10/10/10 18/18/18
f 3/3/3 15/15/15 11/11/11
f 5/5/5 14/14/14 15/15/15
f 7/7/7 13/13/13 14/14/14
f 9/9/9 12/12/12 13/13/13
f 1/1/1 11/11/11 12/12/12
f 1/1/1 10/10/10 2/2/2
f 9/9/9 8/8/8 10/10/10
f 7/7/7 6/6/6 8/8/8
f 5/5/5 4/4/4 6/6/6
f 3/3/3 2/2/2 4/4/4
f 20/20/20 16/16/16 18/18/18
f 15/15/15 12/12/12 11/11/11
f 12/12/12 15/15/15 13/13/13
f 13/13/13 15/15/15 14/14/14
f 20/20/20 18/18/18 17/17/17
f 17/17/17 18/18/18 19/19/19
