# Blender v2.78 (sub 0) OBJ File: ''
# www.blender.org
mtllib Left_Leg_Lower.mtl
o Left_Lower_Leg_Left_Lower_Leg.002
v 0.226220 -0.401060 0.076886
v 0.002714 -0.101039 0.220287
v 0.000038 -0.402894 0.250400
v 0.143100 -0.401515 -0.204068
v 0.125413 -0.101979 -0.184370
v -0.131923 -0.404261 -0.206156
v -0.223782 -0.402393 0.073612
v -0.119610 -0.104993 -0.186264
v -0.196267 -0.101742 0.063654
v 0.203710 -0.104997 0.066332
v 0.000000 0.000000 0.000000
v 0.001122 -0.475667 0.001507
vt 0.0000 0.0000
vt 0.0000 0.0000
vt 0.0000 0.0000
vt 0.0000 0.0000
vt 0.0000 0.0000
vt 0.0000 0.0000
vt 0.0000 0.0000
vt 0.0000 0.0000
vt 0.0000 0.0000
vt 0.0000 0.0000
vt 0.0000 0.0000
vt 0.0000 0.0000
vn 0.8814 -0.3792 0.2817
vn -0.0044 0.4596 0.8881
vn -0.0038 -0.6290 0.7774
vn 0.4755 -0.6263 -0.6178
vn 0.5369 0.4469 -0.7155
vn -0.3645 -0.4876 -0.7933
vn -0.8859 -0.3766 0.2708
vn -0.6284 0.5060 -0.5909
vn -0.7643 0.6014 0.2328
vn 0.7634 0.5997 0.2398
vn -0.0028 1.0000 -0.0005
vn 0.0037 -1.0000 0.0024
usemtl Overalls.011
s 1
f 1/1/1 2/2/2 3/3/3
f 4/4/4 5/5/5 1/1/1
f 6/6/6 5/5/5 4/4/4
f 7/7/7 8/8/8 6/6/6
f 3/3/3 2/2/2 7/7/7
f 7/7/7 2/2/2 9/9/9
f 8/8/8 7/7/7 9/9/9
f 5/5/5 6/6/6 8/8/8
f 1/1/1 5/5/5 10/10/10
f 2/2/2 1/1/1 10/10/10
f 10/10/10 5/5/5 11/11/11
f 7/7/7 6/6/6 12/12/12
f 3/3/3 7/7/7 12/12/12
f 1/1/1 3/3/3 12/12/12
f 4/4/4 1/1/1 12/12/12
f 6/6/6 4/4/4 12/12/12
f 2/2/2 10/10/10 11/11/11
f 9/9/9 2/2/2 11/11/11
f 8/8/8 9/9/9 11/11/11
f 5/5/5 8/8/8 11/11/11
