# Blender v2.78 (sub 0) OBJ File: ''
# www.blender.org
mtllib Right_Arm_Lower.mtl
o Right_Lower_Arm.000_Right_Lower_Arm.004
v -0.053632 0.149767 0.057558
v -0.298894 0.141897 0.043256
v -0.061354 -0.007976 0.160022
v -0.304951 0.005688 0.133189
v -0.067518 -0.154571 0.037069
v -0.310792 -0.122210 0.022470
v -0.060613 -0.084298 -0.135934
v -0.305731 -0.060297 -0.121369
v -0.052138 0.100429 -0.124407
v -0.298335 0.099623 -0.112733
v -0.003514 -0.004410 0.108163
v 0.004894 0.098923 0.039816
v 0.004472 0.068133 -0.084690
v -0.001419 -0.057035 -0.089258
v -0.004433 -0.105612 0.025969
v -0.362426 0.019799 -0.009456
vt 0.0000 0.0000
vt 0.0000 0.0000
vt 0.0000 0.0000
vt 0.0000 0.0000
vt 0.0000 0.0000
vt 0.0000 0.0000
vt 0.0000 0.0000
vt 0.0000 0.0000
vt 0.0000 0.0000
vt 0.0000 0.0000
vt 0.0000 0.0000
vt 0.0000 0.0000
vt 0.0000 0.0000
vt 0.0000 0.0000
vt 0.0000 0.0000
vt 0.0000 0.0000
vn 0.3598 0.8757 0.3219
vn -0.4935 0.7534 0.4345
vn 0.3196 -0.0400 0.9467
vn -0.5541 -0.1826 0.8122
vn 0.2836 -0.9252 0.2522
vn -0.5704 -0.8207 0.0333
vn 0.3235 -0.5353 -0.7803
vn -0.5210 -0.2872 -0.8038
vn 0.3548 0.5697 -0.7413
vn -0.4747 0.6738 -0.5663
vn 0.8755 0.0557 0.4800
vn 0.8935 0.4419 0.0803
vn 0.8207 0.2244 -0.5255
vn 0.9115 -0.3217 -0.2563
vn 0.7874 -0.5480 0.2823
vn -0.9983 0.0534 -0.0223
usemtl Shirt_Cap.005
s 1
f 1/1/1 2/2/2 3/3/3
f 3/3/3 4/4/4 5/5/5
f 5/5/5 6/6/6 7/7/7
f 7/7/7 8/8/8 9/9/9
f 9/9/9 10/10/10 1/1/1
f 1/1/1 3/3/3 11/11/11
f 9/9/9 1/1/1 12/12/12
f 7/7/7 9/9/9 13/13/13
f 5/5/5 7/7/7 14/14/14
f 3/3/3 5/5/5 15/15/15
f 2/2/2 10/10/10 16/16/16
f 4/4/4 2/2/2 16/16/16
f 6/6/6 4/4/4 16/16/16
f 8/8/8 6/6/6 16/16/16
f 10/10/10 8/8/8 16/16/16
f 3/3/3 15/15/15 11/11/11
f 5/5/5 14/14/14 15/15/15
f 7/7/7 13/13/13 14/14/14
f 9/9/9 12/12/12 13/13/13
f 1/1/1 11/11/11 12/12/12
f 1/1/1 10/10/10 2/2/2
f 9/9/9 8/8/8 10/10/10
f 7/7/7 6/6/6 8/8/8
f 5/5/5 4/4/4 6/6/6
f 3/3/3 2/2/2 4/4/4
f 13/13/13 12/12/12 14/14/14
f 14/14/14 12/12/12 11/11/11
f 14/14/14 11/11/11 15/15/15
