# Blender v2.78 (sub 5) OBJ File: ''
# www.blender.org
mtllib Right_Arm_Upper.mtl
o Right_Upper_Arm.000_Right_Upper_Arm.000
v -0.078726 0.187420 0.046378
v -0.131895 -0.000255 0.163092
v -0.317594 0.168671 -0.049739
v -0.101522 -0.181604 0.022146
v -0.365242 0.018471 0.045988
v -0.027247 -0.100979 -0.177862
v -0.335424 -0.125462 -0.069946
v -0.014139 0.123222 -0.161107
v -0.278950 -0.059467 -0.224474
v -0.267760 0.120078 -0.212921
v -0.038757 -0.003317 0.111703
v -0.003007 0.109339 0.039895
v 0.033572 0.071875 -0.084219
v 0.026043 -0.062556 -0.095207
v -0.017852 -0.115341 0.027827
v -0.362873 0.128966 -0.081306
v -0.375128 -0.075373 -0.095740
v -0.324872 0.095130 -0.193816
v -0.331970 -0.029378 -0.203645
v -0.390039 0.026787 -0.015985
vt 0.000000 0.000000
vt 0.000000 0.000000
vt 0.000000 0.000000
vt 0.000000 0.000000
vt 0.000000 0.000000
vt 0.000000 0.000000
vt 0.000000 0.000000
vt 0.000000 0.000000
vt 0.000000 0.000000
vt 0.000000 0.000000
vt 0.000000 0.000000
vt 0.000000 0.000000
vt 0.000000 0.000000
vt 0.000000 0.000000
vt 0.000000 0.000000
vt 0.000000 0.000000
vt 0.000000 0.000000
vt 0.000000 0.000000
vt 0.000000 0.000000
vt 0.000000 0.000000
vn 0.3010 0.8654 0.4007
vn -0.4482 0.8380 0.3112
vn 0.0360 -0.0258 0.9990
vn -0.7710 -0.0886 0.6306
vn 0.1684 -0.9249 0.3409
vn -0.4679 -0.8813 -0.0667
vn 0.5253 -0.5571 -0.6432
vn -0.2524 -0.3378 -0.9068
vn 0.5954 0.5329 -0.6013
vn -0.1990 0.7321 -0.6515
vn 0.6368 0.0471 0.7696
vn 0.8677 0.3655 0.3369
vn 0.9875 0.1183 -0.1046
vn 0.8781 -0.4636 -0.1182
vn 0.8043 -0.3881 0.4499
vn -0.7934 0.6048 -0.0684
vn -0.9049 -0.3814 -0.1890
vn -0.7537 0.2244 -0.6178
vn -0.7015 -0.1839 -0.6885
vn -0.9978 0.0653 0.0133
usemtl Shirt_Cap.000
s 1
f 1/1/1 3/2/2 2/3/3
f 2/3/3 5/4/4 4/5/5
f 4/5/5 7/6/6 6/7/7
f 6/7/7 9/8/8 8/9/9
f 8/9/9 10/10/10 1/1/1
f 1/1/1 2/3/3 11/11/11
f 8/9/9 1/1/1 12/12/12
f 6/7/7 8/9/9 13/13/13
f 4/5/5 6/7/7 14/14/14
f 2/3/3 4/5/5 15/15/15
f 3/2/2 10/10/10 16/16/16
f 5/4/4 3/2/2 16/16/16
f 7/6/6 5/4/4 17/17/17
f 9/8/8 7/6/6 17/17/17
f 10/10/10 9/8/8 18/18/18
f 18/18/18 9/8/8 19/19/19
f 9/8/8 17/17/17 19/19/19
f 17/17/17 5/4/4 20/20/20
f 5/4/4 16/16/16 20/20/20
f 16/16/16 10/10/10 18/18/18
f 2/3/3 15/15/15 11/11/11
f 4/5/5 14/14/14 15/15/15
f 6/7/7 13/13/13 14/14/14
f 8/9/9 12/12/12 13/13/13
f 1/1/1 11/11/11 12/12/12
f 1/1/1 10/10/10 3/2/2
f 8/9/9 9/8/8 10/10/10
f 6/7/7 7/6/6 9/8/8
f 4/5/5 5/4/4 7/6/6
f 2/3/3 3/2/2 5/4/4
f 20/20/20 16/16/16 18/18/18
f 15/15/15 12/12/12 11/11/11
f 12/12/12 15/15/15 13/13/13
f 13/13/13 15/15/15 14/14/14
f 20/20/20 18/18/18 17/17/17
f 17/17/17 18/18/18 19/19/19
