# Blender v2.78 (sub 0) OBJ File: ''
# www.blender.org
mtllib Right_Leg_Foot.mtl
o Right_Foot_Right_Foot.002
v 0.016357 -0.098384 -0.462709
v 0.000000 0.000000 0.000000
v 0.159061 -0.113894 -0.369232
v -0.166062 -0.116905 -0.367829
v -0.221191 -0.106365 0.042159
v 0.013939 -0.115390 0.240834
v 0.213772 -0.141457 0.046164
v -0.078211 -0.354130 -0.490508
v 0.091451 -0.352835 -0.475220
v 0.208011 -0.353147 -0.334739
v -0.217230 -0.352974 -0.329453
v -0.133110 -0.353423 0.313196
v -0.253869 -0.352723 0.140979
v 0.146912 -0.352051 0.315402
v 0.251331 -0.352963 0.137678
vt 0.0000 0.0000
vt 0.0000 0.0000
vt 0.0000 0.0000
vt 0.0000 0.0000
vt 0.0000 0.0000
vt 0.0000 0.0000
vt 0.0000 0.0000
vt 0.0000 0.0000
vt 0.0000 0.0000
vt 0.0000 0.0000
vt 0.0000 0.0000
vt 0.0000 0.0000
vt 0.0000 0.0000
vt 0.0000 0.0000
vt 0.0000 0.0000
vn 0.0509 0.6254 -0.7787
vn 0.0504 0.9973 0.0529
vn 0.7336 0.5323 -0.4225
vn -0.6828 0.5659 -0.4621
vn -0.7870 0.5600 0.2588
vn 0.0506 0.7114 0.7009
vn 0.8200 0.5285 0.2198
vn -0.4040 -0.2164 -0.8888
vn 0.4337 -0.5079 -0.7443
vn 0.7046 -0.6752 -0.2181
vn -0.6977 -0.6819 -0.2195
vn -0.4924 -0.3193 0.8097
vn -0.5594 -0.8158 0.1470
vn 0.5788 0.0712 0.8124
vn 0.5773 -0.8070 0.1243
usemtl Shoes.004
s 1
f 1/1/1 2/2/2 3/3/3
f 2/2/2 1/1/1 4/4/4
f 2/2/2 4/4/4 5/5/5
f 6/6/6 2/2/2 5/5/5
f 3/3/3 2/2/2 7/7/7
f 2/2/2 6/6/6 7/7/7
f 8/8/8 4/4/4 1/1/1
f 1/1/1 9/9/9 8/8/8
f 9/9/9 3/3/3 10/10/10
f 9/9/9 1/1/1 3/3/3
f 4/4/4 8/8/8 11/11/11
f 5/5/5 12/12/12 6/6/6
f 12/12/12 5/5/5 13/13/13
f 14/14/14 7/7/7 6/6/6
f 6/6/6 12/12/12 14/14/14
f 7/7/7 14/14/14 15/15/15
f 7/7/7 15/15/15 10/10/10
f 4/4/4 11/11/11 5/5/5
f 7/7/7 10/10/10 3/3/3
f 5/5/5 11/11/11 13/13/13
f 11/11/11 8/8/8 9/9/9
f 11/11/11 9/9/9 10/10/10
f 11/11/11 10/10/10 13/13/13
f 13/13/13 10/10/10 15/15/15
f 13/13/13 15/15/15 12/12/12
f 12/12/12 15/15/15 14/14/14
