# Blender v2.78 (sub 0) OBJ File: ''
# www.blender.org
mtllib Torso.mtl
o Abdomen
v -0.130253 -0.260409 0.350926
v -0.170414 -0.414633 0.303503
v 0.169566 -0.414989 0.303502
v -0.460110 -0.142843 -0.107271
v 0.000000 0.000000 0.000000
v -0.180068 -0.084131 -0.361369
v 0.454821 -0.152747 0.142619
v 0.474633 -0.332177 0.104797
v 0.459830 -0.143888 -0.102267
v -0.395169 -0.179666 -0.312863
v -0.495298 -0.322933 -0.100105
v -0.230219 -0.228021 -0.428641
v 0.179912 -0.084508 -0.361369
v 0.394792 -0.180407 -0.317862
v 0.224761 -0.228497 -0.428641
v 0.194448 -0.527407 0.136710
v 0.359568 -0.394102 0.233826
v 0.314734 -0.235098 0.301336
v 0.189885 -0.109824 0.293314
v 0.129727 -0.260682 0.350926
v -0.195095 -0.109421 0.293314
v -0.455119 -0.151795 0.142619
v -0.315226 -0.234438 0.301336
v -0.195532 -0.526999 0.136710
v -0.360392 -0.393348 0.233827
v -0.395453 -0.451171 0.097892
v 0.209461 -0.515244 -0.318139
v -0.000448 -0.428245 -0.431783
v 0.274557 -0.403930 -0.406391
v -0.430316 -0.339841 -0.300387
v -0.275403 -0.403354 -0.406391
v 0.429624 -0.340669 -0.305373
v -0.475312 -0.336184 0.104711
v -0.210519 -0.514804 -0.318139
v 0.394502 -0.456996 0.097810
v 0.494641 -0.323970 -0.100105
v 0.404495 -0.463930 -0.097303
v -0.405465 -0.462996 -0.102305
vt 0.0000 0.0000
vt 0.0000 0.0000
vt 0.0000 0.0000
vt 0.0000 0.0000
vt 0.0000 0.0000
vt 0.0000 0.0000
vt 0.0000 0.0000
vt 0.0000 0.0000
vt 0.0000 0.0000
vt 0.0000 0.0000
vt 0.0000 0.0000
vt 0.0000 0.0000
vt 0.0000 0.0000
vt 0.0000 0.0000
vt 0.0000 0.0000
vt 0.0000 0.0000
vt 0.0000 0.0000
vt 0.0000 0.0000
vt 0.0000 0.0000
vt 0.0000 0.0000
vt 0.0000 0.0000
vt 0.0000 0.0000
vt 0.0000 0.0000
vt 0.0000 0.0000
vt 0.0000 0.0000
vt 0.0000 0.0000
vt 0.0000 0.0000
vt 0.0000 0.0000
vt 0.0000 0.0000
vt 0.0000 0.0000
vt 0.0000 0.0000
vt 0.0000 0.0000
vt 0.0000 0.0000
vt 0.0000 0.0000
vt 0.0000 0.0000
vt 0.0000 0.0000
vt 0.0000 0.0000
vt 0.0000 0.0000
vn -0.0872 0.0313 0.9957
vn -0.1998 -0.5108 0.8361
vn 0.1421 -0.5382 0.8308
vn -0.7685 0.6314 -0.1036
vn 0.0009 0.9986 0.0529
vn -0.2482 0.8247 -0.5082
vn 0.6895 0.6088 0.3924
vn 0.9257 -0.2196 0.3080
vn 0.7683 0.6324 -0.0987
vn -0.7272 0.3911 -0.5641
vn -0.9814 -0.1135 -0.1547
vn -0.2449 0.2064 -0.9473
vn 0.2061 0.7737 -0.5991
vn 0.7228 0.3926 -0.5687
vn 0.2726 0.1627 -0.9483
vn 0.2244 -0.9331 0.2809
vn 0.5494 -0.5248 0.6502
vn 0.5143 0.0349 0.8569
vn 0.1786 0.6329 0.7533
vn 0.1301 0.0318 0.9910
vn -0.2169 0.6810 0.6994
vn -0.6911 0.6076 0.3915
vn -0.5152 0.0328 0.8565
vn -0.1760 -0.9432 0.2818
vn -0.5506 -0.5317 0.6436
vn -0.6082 -0.7480 0.2656
vn 0.2428 -0.9065 -0.3453
vn -0.0005 -0.4129 -0.9108
vn 0.3711 -0.3909 -0.8423
vn -0.7633 -0.3105 -0.5665
vn -0.3805 -0.3930 -0.8371
vn 0.7562 -0.3167 -0.5726
vn -0.9233 -0.2287 0.3084
vn -0.2864 -0.8717 -0.3977
vn 0.6134 -0.7429 0.2681
vn 0.9824 -0.1148 -0.1472
vn 0.6563 -0.7509 -0.0737
vn -0.6577 -0.7498 -0.0730
usemtl Overalls.004
s 1
f 1/1/1 2/2/2 3/3/3
f 4/4/4 5/5/5 6/6/6
f 7/7/7 8/8/8 9/9/9
f 10/10/10 11/11/11 4/4/4
f 10/10/10 6/6/6 12/12/12
f 13/13/13 14/14/14 15/15/15
f 16/16/16 17/17/17 3/3/3
f 18/18/18 19/19/19 20/20/20
f 21/21/21 22/22/22 23/23/23
f 24/24/24 25/25/25 26/26/26
f 7/7/7 5/5/5 19/19/19
f 5/5/5 22/22/22 21/21/21
f 27/27/27 28/28/28 29/29/29
f 30/30/30 12/12/12 31/31/31
f 15/15/15 32/32/32 29/29/29
f 24/24/24 16/16/16 3/3/3
f 17/17/17 18/18/18 3/3/3
f 19/19/19 21/21/21 1/1/1
f 22/22/22 33/33/33 23/23/23
f 28/28/28 27/27/27 34/34/34
f 28/28/28 34/34/34 31/31/31
f 22/22/22 5/5/5 4/4/4
f 21/21/21 19/19/19 5/5/5
f 5/5/5 7/7/7 9/9/9
f 18/18/18 8/8/8 7/7/7
f 23/23/23 25/25/25 2/2/2
f 25/25/25 24/24/24 2/2/2
f 17/17/17 16/16/16 35/35/35
f 21/21/21 23/23/23 1/1/1
f 19/19/19 18/18/18 7/7/7
f 9/9/9 36/36/36 14/14/14
f 4/4/4 33/33/33 22/22/22
f 13/13/13 9/9/9 14/14/14
f 17/17/17 35/35/35 8/8/8
f 8/8/8 37/37/37 36/36/36
f 37/37/37 32/32/32 36/36/36
f 30/30/30 38/38/38 11/11/11
f 38/38/38 33/33/33 11/11/11
f 26/26/26 25/25/25 33/33/33
f 33/33/33 38/38/38 26/26/26
f 37/37/37 8/8/8 35/35/35
f 38/38/38 24/24/24 26/26/26
f 9/9/9 13/13/13 5/5/5
f 6/6/6 5/5/5 13/13/13
f 4/4/4 6/6/6 10/10/10
f 33/33/33 4/4/4 11/11/11
f 14/14/14 36/36/36 32/32/32
f 23/23/23 2/2/2 1/1/1
f 8/8/8 18/18/18 17/17/17
f 23/23/23 33/33/33 25/25/25
f 19/19/19 1/1/1 20/20/20
f 3/3/3 18/18/18 20/20/20
f 24/24/24 3/3/3 2/2/2
f 32/32/32 15/15/15 14/14/14
f 12/12/12 30/30/30 10/10/10
f 16/16/16 37/37/37 35/35/35
f 11/11/11 10/10/10 30/30/30
f 9/9/9 8/8/8 36/36/36
f 1/1/1 3/3/3 20/20/20
f 34/34/34 30/30/30 31/31/31
f 34/34/34 38/38/38 30/30/30
f 32/32/32 27/27/27 29/29/29
f 27/27/27 32/32/32 37/37/37
f 27/27/27 37/37/37 16/16/16
f 24/24/24 27/27/27 16/16/16
f 34/34/34 24/24/24 38/38/38
f 27/27/27 24/24/24 34/34/34
f 12/12/12 13/13/13 15/15/15
f 12/12/12 15/15/15 28/28/28
f 28/28/28 15/15/15 29/29/29
f 12/12/12 28/28/28 31/31/31
f 13/13/13 12/12/12 6/6/6
o Buttons
v 0.175223 0.212839 0.318247
v 0.205025 0.023209 0.389326
v 0.309973 -0.007237 0.329500
v 0.150124 0.118161 0.368782
v 0.380046 0.062365 0.274107
v 0.370124 0.137274 0.253679
v 0.295208 0.217399 0.263211
v -0.169757 0.213200 0.318247
v -0.199955 0.023633 0.389326
v -0.144856 0.118470 0.368782
v -0.304987 -0.006593 0.329500
v -0.364836 0.138044 0.253679
v -0.289752 0.218012 0.263212
v -0.374914 0.063156 0.274107
vt 0.0332 0.8965
vt 0.1758 0.0605
vt 0.6660 0.0566
vt -0.0586 0.4414
vt 0.9434 0.4238
vt 0.8809 0.7539
vt 0.5352 1.0000
vt 0.8301 0.9297
vt 0.7578 0.1016
vt 0.9668 0.5000
vt 0.2578 0.0508
vt -0.0234 0.6973
vt 0.3047 1.0000
vt -0.0566 0.3730
vn 0.3000 0.4618 0.8347
vn 0.2773 0.1608 0.9472
vn 0.5412 0.0360 0.8401
vn 0.0662 0.3541 0.9329
vn 0.6932 0.2024 0.6918
vn 0.6831 0.3267 0.6531
vn 0.4585 0.6176 0.6390
vn -0.2398 0.4982 0.8333
vn -0.1984 0.1325 0.9711
vn -0.1097 0.3599 0.9265
vn -0.5455 0.0322 0.8375
vn 0.4053 0.6830 0.6076
vn -0.4666 0.6189 0.6318
vn -0.6984 0.1902 0.6900
usemtl Buttons
s 1
f 39/39/39 40/40/40 41/41/41
f 40/40/40 39/39/39 42/42/42
f 39/39/39 41/41/41 43/43/43
f 39/39/39 44/44/44 45/45/45
f 39/39/39 43/43/43 44/44/44
f 46/46/46 47/47/47 48/48/48
f 46/46/46 49/49/49 47/47/47
f 50/50/50 46/46/46 51/51/51
f 46/46/46 50/50/50 52/52/52
f 46/46/46 52/52/52 49/49/49
o Chest
v 0.175223 0.212839 0.318247
v -0.169757 0.213200 0.318247
v 0.150124 0.118161 0.368782
v -0.144856 0.118470 0.368782
v -0.199955 0.023633 0.389326
v 0.205025 0.023209 0.389326
v 0.174899 -0.096765 0.385013
v -0.175081 -0.096428 0.380021
v -0.304987 -0.006593 0.329500
v -0.120228 -0.236609 0.360821
v -0.370150 -0.161920 0.260404
v -0.270212 -0.221763 0.305744
v 0.124752 -0.236866 0.360821
v 0.274748 -0.222334 0.305744
v 0.374810 -0.162700 0.260404
v -0.289752 0.218012 0.263212
v -0.304586 0.376596 0.012316
v -0.369778 0.192726 0.198371
v 0.309973 -0.007237 0.329500
v 0.135405 0.386786 0.127260
v 0.295208 0.217399 0.263211
v 0.370124 0.137274 0.253679
v 0.375187 0.196933 0.198342
v 0.310374 0.375953 0.012316
v 0.120498 0.475764 -0.053247
v -0.129575 0.387063 0.127260
v -0.364836 0.138044 0.253679
v -0.114481 0.476010 -0.053247
v 0.000256 0.244072 -0.371930
v -0.334902 0.074477 -0.360948
v -0.249661 0.304652 -0.317270
v -0.459954 0.006074 -0.105567
v -0.430127 -0.159381 -0.179614
v -0.295159 -0.170470 -0.344541
v 0.000015 0.013767 -0.425608
v -0.185315 -0.319706 -0.193691
v -0.000184 -0.175990 -0.384519
v -0.445126 -0.157894 0.075376
v -0.449921 0.037293 0.109250
v 0.255299 0.304123 -0.317270
v 0.340058 0.073770 -0.360948
v 0.294801 -0.171088 -0.344542
v 0.434813 -0.160287 -0.179614
v 0.464986 0.005075 -0.110555
v 0.455024 0.041354 0.109234
v 0.454814 -0.158837 0.075376
v 0.189665 -0.320099 -0.193691
v -0.145375 -0.377393 0.216636
v 0.149605 -0.377702 0.216636
v 0.419936 -0.042883 0.234712
v -0.410004 -0.042014 0.234712
v -0.309566 0.395352 -0.202801
v -0.124519 0.439966 -0.238059
v 0.315394 0.394698 -0.202801
v 0.130461 0.439699 -0.238059
v -0.374914 0.063156 0.274107
v 0.380046 0.062365 0.274107
vt 0.0000 0.0000
vt 0.0000 0.0000
vt 0.0000 0.0000
vt 0.0000 0.0000
vt 0.0000 0.0000
vt 0.0000 0.0000
vt 0.0000 0.0000
vt 0.0000 0.0000
vt 0.0000 0.0000
vt 0.0000 0.0000
vt 0.0000 0.0000
vt 0.0000 0.0000
vt 0.0000 0.0000
vt 0.0000 0.0000
vt 0.0000 0.0000
vt 0.0000 0.0000
vt 0.0000 0.0000
vt 0.0000 0.0000
vt 0.0000 0.0000
vt 0.0000 0.0000
vt 0.0000 0.0000
vt 0.0000 0.0000
vt 0.0000 0.0000
vt 0.0000 0.0000
vt 0.0000 0.0000
vt 0.0000 0.0000
vt 0.0000 0.0000
vt 0.0000 0.0000
vt 0.0000 0.0000
vt 0.0000 0.0000
vt 0.0000 0.0000
vt 0.0000 0.0000
vt 0.0000 0.0000
vt 0.0000 0.0000
vt 0.0000 0.0000
vt 0.0000 0.0000
vt 0.0000 0.0000
vt 0.0000 0.0000
vt 0.0000 0.0000
vt 0.0000 0.0000
vt 0.0000 0.0000
vt 0.0000 0.0000
vt 0.0000 0.0000
vt 0.0000 0.0000
vt 0.0000 0.0000
vt 0.0000 0.0000
vt 0.0000 0.0000
vt 0.0000 0.0000
vt 0.0000 0.0000
vt 0.0000 0.0000
vt 0.0000 0.0000
vt 0.0000 0.0000
vt 0.0000 0.0000
vt 0.0000 0.0000
vt 0.0000 0.0000
vt 0.0000 0.0000
vt 0.0000 0.0000
vn 0.2367 0.5816 0.7783
vn -0.2101 0.5231 0.8260
vn 0.0661 0.3540 0.9329
vn -0.1097 0.3598 0.9265
vn -0.1984 0.1325 0.9711
vn 0.2774 0.1608 0.9472
vn 0.2248 -0.1544 0.9621
vn -0.3047 -0.1676 0.9376
vn -0.5455 0.0322 0.8375
vn -0.1455 -0.4097 0.9005
vn -0.6813 -0.3708 0.6312
vn -0.4639 -0.4667 0.7530
vn 0.1409 -0.5330 0.8343
vn 0.4630 -0.4741 0.7489
vn 0.6724 -0.3790 0.6358
vn -0.4666 0.6189 0.6319
vn -0.3889 0.8439 0.3696
vn -0.7231 0.4944 0.4823
vn 0.5412 0.0360 0.8401
vn 0.3521 0.7874 0.5060
vn 0.0849 0.6015 0.7943
vn 0.4584 0.6176 0.6391
vn 0.6832 0.3267 0.6531
vn 0.7180 0.4918 0.4925
vn 0.3844 0.8455 0.3705
vn 0.3788 0.9115 0.1602
vn -0.3505 0.8019 0.4839
vn 0.4053 0.6830 0.6076
vn -0.0843 0.6632 0.7437
vn -0.4095 0.9025 0.1336
vn 0.0055 0.3319 -0.9433
vn -0.4182 0.0492 -0.9070
vn -0.1628 0.4948 -0.8536
vn -0.9826 -0.0520 -0.1782
vn -0.8389 -0.4248 -0.3402
vn -0.3893 -0.4447 -0.8066
vn -0.0008 -0.0295 -0.9996
vn -0.3137 -0.8886 -0.3347
vn -0.0006 -0.5736 -0.8192
vn -0.8847 -0.4497 0.1225
vn -0.9567 0.0464 0.2874
vn 0.1625 0.4939 -0.8542
vn 0.4392 -0.0014 -0.8984
vn 0.3827 -0.4460 -0.8091
vn 0.8317 -0.4279 -0.3539
vn 0.9801 -0.0533 -0.1913
vn 0.9616 0.0418 0.2711
vn 0.8855 -0.4490 0.1195
vn 0.2653 -0.9123 -0.3119
vn -0.3019 -0.8917 0.3373
vn 0.3918 -0.8544 0.3413
vn 0.8461 -0.0450 0.5312
vn -0.8507 -0.0530 0.5230
vn -0.3127 0.8993 -0.3058
vn -0.2773 0.7838 -0.5557
vn 0.3450 0.8981 -0.2727
vn 0.2154 0.8120 -0.5424
vn -0.6984 0.1902 0.6899
vn 0.6931 0.2024 0.6918
usemtl Overalls.004
s 1
f 53/53/53 54/54/54 55/55/55
f 55/55/55 54/54/54 56/56/56
f 57/57/57 58/58/58 55/55/55
f 57/57/57 55/55/55 56/56/56
f 59/59/59 58/58/58 57/57/57
f 59/59/59 57/57/57 60/60/60
f 61/61/61 60/60/60 57/57/57
f 60/60/60 62/62/62 59/59/59
f 63/63/63 60/60/60 61/61/61
f 60/60/60 63/63/63 64/64/64
f 64/64/64 62/62/62 60/60/60
f 65/65/65 66/66/66 59/59/59
f 59/59/59 62/62/62 65/65/65
f 67/67/67 59/59/59 66/66/66
f 68/68/68 69/69/69 70/70/70
f 59/59/59 71/71/71 58/58/58
f 72/72/72 53/53/73 73/73/74
f 73/73/74 74/74/75 75/75/76
f 76/76/77 73/73/74 75/75/76
f 73/73/74 76/76/77 72/72/72
f 76/76/77 77/77/78 72/72/72
f 68/68/68 78/78/79 69/69/69
f 79/79/80 68/68/68 70/70/70
f 78/78/79 68/68/68 54/54/81
f 80/80/82 69/69/69 78/78/79
f 81/81/83 82/82/84 83/83/85
f 84/84/86 82/82/84 85/85/87
f 85/85/87 82/82/84 86/86/88
f 82/82/84 81/81/83 87/87/89
f 87/87/89 86/86/88 82/82/84
f 88/88/90 85/85/87 86/86/88
f 86/86/88 89/89/91 88/88/90
f 86/86/88 87/87/89 89/89/91
f 84/84/86 85/85/87 90/90/92
f 88/88/90 90/90/92 85/85/87
f 91/91/93 84/84/86 90/90/92
f 92/92/94 93/93/95 81/81/83
f 81/81/83 93/93/95 87/87/89
f 94/94/96 87/87/89 93/93/95
f 95/95/97 94/94/96 93/93/95
f 95/95/97 93/93/95 96/96/98
f 97/97/99 98/98/100 96/96/98
f 95/95/97 96/96/98 98/98/100
f 99/99/101 94/94/96 95/95/97
f 98/98/100 99/99/101 95/95/97
f 99/99/101 89/89/91 94/94/96
f 87/87/89 94/94/96 89/89/91
f 100/100/102 63/63/63 90/90/92
f 90/90/92 88/88/90 100/100/102
f 101/101/103 100/100/102 99/99/101
f 100/100/102 65/65/65 62/62/62
f 64/64/64 100/100/102 62/62/62
f 99/99/101 100/100/102 88/88/90
f 100/100/102 64/64/64 63/63/63
f 101/101/103 65/65/65 100/100/102
f 89/89/91 99/99/101 88/88/90
f 99/99/101 98/98/100 101/101/103
f 66/66/66 101/101/103 67/67/67
f 101/101/103 66/66/66 65/65/65
f 102/102/104 98/98/100 97/97/99
f 102/102/104 67/67/67 98/98/100
f 67/67/67 101/101/103 98/98/100
f 91/91/93 90/90/92 103/103/105
f 103/103/105 90/90/92 63/63/63
f 104/104/106 69/69/69 80/80/82
f 104/104/106 80/80/82 105/105/107
f 83/83/85 104/104/106 105/105/107
f 105/105/107 81/81/83 83/83/85
f 106/106/108 92/92/94 107/107/109
f 77/77/78 106/106/108 107/107/109
f 77/77/78 76/76/77 106/106/108
f 81/81/83 107/107/109 92/92/94
f 61/61/61 108/108/110 103/103/105
f 103/103/105 63/63/63 61/61/61
f 97/97/99 74/74/75 109/109/111
f 71/71/71 67/67/67 102/102/104
f 71/71/71 59/59/59 67/67/67
f 109/109/111 71/71/71 102/102/104
f 97/97/99 109/109/111 102/102/104
f 108/108/110 91/91/93 103/103/105
f 70/70/70 91/91/93 79/79/80
f 74/74/75 97/97/99 75/75/76
f 79/79/80 91/91/93 108/108/110
o Neck_Chest.001
v 0.135405 0.386786 0.127260
v -0.169757 0.213200 0.318247
v 0.175223 0.212839 0.318247
v -0.129575 0.387063 0.127260
v 0.120498 0.475764 -0.053247
v -0.114481 0.476010 -0.053247
v -0.414745 0.205346 -0.226704
v -0.459954 0.006074 -0.105567
v -0.439739 0.211415 -0.041750
v -0.449921 0.037293 0.109250
v -0.334902 0.074477 -0.360948
v -0.309566 0.395352 -0.202801
v -0.249661 0.304652 -0.317270
v 0.420195 0.204472 -0.226704
v 0.340058 0.073770 -0.360948
v 0.255299 0.304123 -0.317270
v 0.464986 0.005075 -0.110555
v 0.445201 0.210488 -0.041750
v 0.315394 0.394698 -0.202801
v 0.455024 0.041354 0.109234
v 0.130461 0.439699 -0.238059
v -0.124519 0.439966 -0.238059
v 0.000256 0.244072 -0.371930
v 0.310374 0.375953 0.012316
v 0.375187 0.196933 0.198342
v -0.369778 0.192726 0.198371
v -0.304586 0.376596 0.012316
vt 0.0000 0.0000
vt 0.0000 0.0000
vt 0.0000 0.0000
vt 0.0000 0.0000
vt 0.0000 0.0000
vt 0.0000 0.0000
vt 0.0000 0.0000
vt 0.0000 0.0000
vt 0.0000 0.0000
vt 0.0000 0.0000
vt 0.0000 0.0000
vt 0.0000 0.0000
vt 0.0000 0.0000
vt 0.0000 0.0000
vt 0.0000 0.0000
vt 0.0000 0.0000
vt 0.0000 0.0000
vt 0.0000 0.0000
vt 0.0000 0.0000
vt 0.0000 0.0000
vt 0.0000 0.0000
vt 0.0000 0.0000
vt 0.0000 0.0000
vt 0.0000 0.0000
vt 0.0000 0.0000
vt 0.0000 0.0000
vt 0.0000 0.0000
vn -0.0127 0.8352 0.5498
vn -0.1115 0.5913 0.7987
vn 0.1901 0.5730 0.7972
vn 0.0171 0.8197 0.5725
vn -0.0235 0.9951 0.0958
vn 0.0667 0.9901 0.1234
vn -0.8463 0.2872 -0.4486
vn -0.9849 0.0603 -0.1621
vn -0.9221 0.3807 0.0689
vn -0.9639 0.2290 0.1362
vn -0.7928 0.1506 -0.5906
vn -0.8106 0.4995 -0.3055
vn -0.6305 0.3716 -0.6815
vn 0.8457 0.2876 -0.4496
vn 0.7776 0.1732 -0.6044
vn 0.6314 0.3701 -0.6815
vn 0.9834 0.0658 -0.1691
vn 0.9225 0.3805 0.0654
vn 0.7920 0.5063 -0.3411
vn 0.9596 0.2424 0.1427
vn -0.0082 0.8649 -0.5019
vn 0.0646 0.8750 -0.4798
vn -0.0022 0.5699 -0.8217
vn 0.8079 0.5756 0.1263
vn 0.8613 0.4406 0.2530
vn -0.8637 0.4294 0.2639
vn -0.8056 0.5777 0.1313
usemtl Shirt_Cap
s 1
f 110/110/112 111/111/113 112/112/114
f 113/113/115 111/111/113 110/110/112
f 110/110/112 114/114/116 113/113/115
f 113/113/115 114/114/116 115/115/117
f 116/116/118 117/117/119 118/118/120
f 118/118/120 117/117/119 119/119/121
f 120/120/122 117/117/119 116/116/118
f 121/121/123 122/122/124 116/116/118
f 118/118/120 121/121/123 116/116/118
f 120/120/122 116/116/118 122/122/124
f 123/123/125 124/124/126 125/125/127
f 126/126/128 124/124/126 123/123/125
f 126/126/128 123/123/125 127/127/129
f 128/128/130 127/127/129 123/123/125
f 125/125/127 128/128/130 123/123/125
f 127/127/129 129/129/131 126/126/128
f 130/130/132 115/115/117 114/114/116
f 131/131/133 115/115/117 130/130/132
f 130/130/132 132/132/134 131/131/133
f 128/128/130 133/133/135 127/127/129
f 133/133/135 134/134/136 127/127/129
f 134/134/136 129/129/131 127/127/129
f 135/135/137 136/136/138 118/118/120
f 136/136/138 121/121/123 118/118/120
f 135/135/137 118/118/120 119/119/121
